<svg xmlns="http://www.w3.org/2000/svg" viewBox="0 0 106.68 114.36"><defs><style>.cls-1{fill:#a6afb5;}.cls-1,.cls-2,.cls-3,.cls-4,.cls-5,.cls-6,.cls-7{fill-rule:evenodd;}.cls-2{fill:#d8e8f7;}.cls-3{fill:#004073;}.cls-4{fill:#fff;}.cls-5{fill:#c30d23;}.cls-6{fill:#e1e4e6;}.cls-7{fill:#00538f;}</style></defs><title>资源 3</title><g id="图层_2" data-name="图层 2"><g id="图层_1-2" data-name="图层 1"><path class="cls-1" d="M96.93,51.89a19.08,19.08,0,0,1,9.75,11L97.87,67.1c2.81-5,2.13-10-.94-15.21"/><path class="cls-1" d="M9.74,51.89A19.06,19.06,0,0,0,0,62.89L8.81,67.1c-2.81-5-2.13-10,.93-15.21"/><path class="cls-2" d="M0,62.9V73.55c4.83,1.69,9.5,3.6,13,7q4-2.2,5.29-8.29c-2-3.44-7-6.64-18.32-9.33"/><path class="cls-2" d="M106.68,62.9V73.55c-4.84,1.69-9.5,3.6-13,7q-4-2.2-5.29-8.29c2-3.44,7-6.64,18.32-9.33"/><path class="cls-1" d="M100.6,87.84c-5.84-4.11-10-8.51-12.15-13.4-3.16,5-2.4,12,2.3,17.06,4.62-.44,5.23-3.22,9.85-3.66"/><path class="cls-1" d="M5.64,88.47c6-4.74,10.66-9.38,12.68-14.27C21.48,79.47,20.2,87,15.5,92.3c-4.63-.46-5.23-3.37-9.86-3.83"/><path class="cls-3" d="M16.53,24.37h73v44.1c0,6.75-4.38,13.18-10.5,18.53a64.47,64.47,0,0,1-25.81,13.43h-.37c-10-2.26-19.53-7.19-26.33-14.18-6.1-6.25-10-14.13-10-23.22Z"/><path class="cls-2" d="M18.17,26V63c0,8.63,3.7,16.13,9.51,22.09C34.22,91.83,43.42,96.58,53,98.79a62.75,62.75,0,0,0,24.92-13c5.79-5.06,9.93-11.08,9.93-17.3V26Z"/><polygon class="cls-3" points="28.44 28.49 34.56 28.49 34.56 44.33 40.73 52.42 40.91 52.67 40.73 52.91 37.16 57.75 36.84 58.19 36.51 57.75 31.47 50.96 20.28 66.44 19.54 66.21 19.54 56.91 19.62 56.67 28.44 44.34 28.44 28.49"/><polygon class="cls-3" points="77.22 28.49 77.22 44.34 86.04 56.67 86.11 56.91 86.11 66.21 85.37 66.44 74.18 50.96 69.15 57.75 68.82 58.19 68.49 57.75 64.92 52.91 64.74 52.67 64.92 52.42 71.09 44.33 71.09 28.49 77.22 28.49"/><polygon class="cls-4" points="76.4 29.31 71.91 29.31 71.91 44.46 71.82 44.71 65.76 52.67 68.82 56.82 73.86 50.03 74.19 49.58 74.52 50.03 85.3 64.95 85.3 57.04 76.47 44.71 76.4 44.47 76.4 29.31"/><polygon class="cls-3" points="68.46 92.8 56.57 75.8 62.86 66.73 63.03 66.48 62.85 66.25 59.55 61.98 59.21 61.54 58.89 61.99 52.9 70.56 46.91 61.99 46.59 61.54 46.25 61.98 42.95 66.25 42.77 66.48 42.94 66.73 49.23 75.8 37.33 92.8 37.1 93.14 37.44 93.37 41.82 96.36 42.16 96.59 42.39 96.26 52.9 81.1 63.41 96.26 63.64 96.59 63.98 96.36 68.36 93.37 68.7 93.14 68.46 92.8"/><polygon class="cls-4" points="67.56 92.93 55.57 75.81 62.02 66.51 59.24 62.92 52.9 71.98 46.55 62.92 43.77 66.51 50.22 75.81 38.24 92.93 41.95 95.46 52.9 79.67 63.85 95.46 67.56 92.93"/><path class="cls-3" d="M5.64,90.06v9.59c5.62,1.53,10.43,2.84,16,4.86,10.27,3.75,21.3,8.14,31.93,8.17s20.9-5.28,31-9c5.31-2,10.46-3.92,16-3.73V89.31a94.81,94.81,0,0,0-22.51,6.76c-7.57,3.16-15.67,6.81-23.92,6.58-8.07-.24-21.14-3.88-28.9-7-8-3.21-12.19-4.92-19.63-5.59"/><path class="cls-3" d="M0,64.88V75.54c4.83,1.69,9.5,3.59,13,7q4-2.19,5.29-8.29c-2-3.43-7-6.64-18.32-9.33"/><path class="cls-3" d="M106.68,64.88V75.54c-4.84,1.69-9.5,3.59-13,7q-4-2.19-5.29-8.29c2-3.43,7-6.64,18.32-9.33"/><polygon class="cls-3" points="38.43 0 67.55 0 67.55 4.09 93.74 4.09 89.14 8.69 16.58 8.69 11.98 4.09 38.43 4.09 38.43 0"/><path class="cls-3" d="M16.44,8.33H89.52v17.8H16.44Zm9.84,5.23c.53,0,.38,1.35.38,1.35l-1.21.64s-.6.56.3.56a3.86,3.86,0,0,0,2-.88L27.56,17a31.32,31.32,0,0,1-3.91,2c-.45,0-.9.56-.15,1s.45.32,1.28-.32,2.7-1.83,2.7-1.83l.08,1.35-1.35,1s-.83.43,0,1A1.13,1.13,0,0,0,27.64,21s-.08,1-.16,1.44-.52.72.23,1.51,1.16.46,1.16-.26-.18-3.73-.18-3.73.9-.24,1-.64,0-.47-.75-.47-.75-.24-.75-.24l.23-1.44a29.42,29.42,0,0,0,3-1.06c.79-.37.81-.65.62-.78a1.92,1.92,0,0,0-1.34,0,13.72,13.72,0,0,0-2.2,1l.14-1.13s.15-1,.75-1,1.73-.63,1.66-1-.29-.31-.82-.23c-.21,0-.42-.61-.52-.55-.39.24-.08,1.32-.91,1.18-.2,0,0-.27-.09-.3a.52.52,0,0,0-.66.25l-.49.87s-.42-1-.05-1.38S31,10.84,31,10.84s.37-1-.45-.72a10.15,10.15,0,0,0-2.26,1.76s-.3.64-.53.16.15-1-.23-1-1.05-.48-1.05.16c0,.25-.18.28-.29.4s-.14.24-.13.29,0,.07.17.13.25.54.25.54c-.22.09-.49.11-.6.29a.48.48,0,0,0,.45.75m20.49-1.29a1.19,1.19,0,0,1,.44.78A5.53,5.53,0,0,1,46,15.36c-.45.5-1.11,1.25-1.4,1.62-.13.17-.2.28,0,.38s.48.1.6-.08,2.62-3,3-3.47a.78.78,0,0,0-.08-1.21c-.87-.71-1.35-.33-1.35-.33m-1.39,7.4c-.09,1.41.12,1.61.34,1.64s.87,0,.82-1.41a1.36,1.36,0,0,0-1.15-1.47Zm2.08-1.61c-.05,0-.65.37-.63.73s0,1.12.42,1.16.79-.26.69-.94-.43-1-.48-1m.16-2.47a12.74,12.74,0,0,1-1.26,1.56c-.34.27.09.47.42.57s.84.23,1-.32.15-.87.29-.95.26-.58.07-.74a.8.8,0,0,0-.53-.12m.78,2.85s-.14.67.33.57,1.08-.66,1.09-.37,0,3.47,0,3.73a.68.68,0,0,0,.51.54c.18,0,.58-.19.58-.95V18.7s.47.35,1.25-1c.54-.93.16-1.19-.12-1.27s-.24,0-.43.1a2.35,2.35,0,0,1-.85.45c-.29,0,0-.24-.16-.24s-.52-.1-.52.08,0,1,0,1Zm2.79-1.3c-.1.11-.39.48-.25.57a.32.32,0,0,0,.5-.09c.15-.26.51-.49.28-.57a.72.72,0,0,0-.53.09m-2.1-1a.77.77,0,0,0,.74.41,5,5,0,0,0,2-1.22c.34-.31.71-.68.42-1s-.58-.24-1.12.21a12.89,12.89,0,0,1-1.79,1.09c-.32.16-.46.08-.23.47M62,12.32c-.21-.23-.76-.12-1.11.35s-.32,1-.15,1.11a1.55,1.55,0,0,0,1.52-.53c.39-.49-.26-.93-.26-.93m-3.29,1.39c-.3-.16-.67-.21-.83,0s-.42.55,0,.89.91.57,1.19.19c.57-.92-.4-1.1-.4-1.1M61,15.81c.36,0,.24.38,0,.58a1.57,1.57,0,0,0-.54,1.15c0,.52.69.71,1,.71s0-.58,0-1A2.38,2.38,0,0,1,62.35,16c.43-.39.07-.9-.48-1s-1.21.77-1.21.77Zm-.91,2-.33-.35a16,16,0,0,1-.3,2.22c-.19.58.09,1.67.75,1.77a13,13,0,0,0,3-.07c.43-.13.85-.7.49-1.64s-.55-1.19-.7-1.15-.21.32-.12.74.36,1-.12,1.15-2.37.55-2.46-.45a9.26,9.26,0,0,0-.18-2.22m-3.87-4.07c-.36.26-1,.92-.93,1.41.08.65.32.94.83.85s.73-1.48.66-2.14c0-.41-.31-.3-.56-.12m1.28,2v.44l-.5.32s.07.29.45.21,0,.64-.3.61-.51,0-.56.16-.88.14-.88.14-.65.72-.35,1,.78-.16.93-.23.38-.38.68-.06.25.38-.1.61-.23.43,0,.56.22.35-.35.35-.35-.16-.41-.29S55,20,54.8,20.55s.25,1,.68.83,1.16-1.07,1.54-.88.07.4-.13.82a1.61,1.61,0,0,0,.24,1.56c.35.32.7-.37.7-.83s-.13-1.78.06-1.94.44-.69.65-.83a.81.81,0,0,0,.39-.71c0-.35-.08-.42-.39-.49s-.13-.64.05-.69.49-.28.47-.53-.13-.58-.39-.55-.11-.44-.5-.6-.67-.17-.65.06m16.4,5.77a3.11,3.11,0,0,1-1.65-.19c-.67-.36-1.7-1.1-1.7-1.1s-.22-.18-.23.1a1.84,1.84,0,0,0,.46.91c.16.18.8,1.69,1.47,1.63s1.65-1.35,1.65-1.35M70.6,14.7a2.79,2.79,0,0,0-.73-1.55c-.4-.36-.67-.36-.49.48a14.66,14.66,0,0,1-.27,4.49c-.28.61-1,.81-1.83.9s-1.49-.26-1.22.36.46,1.32,1,1S69,19,68.92,19.77s-1,2.42-2.49,2.16c0,0-.24.61.61.77s2.61-1.29,2.49-3.55c0,0,2-.84,2.77-1.23s.22-.74,0-.8-.55-.39-.94,0-1.31,1.17-1.52.81.15-1.23.42-1.74a4.11,4.11,0,0,0,.31-1.45m-32.93.12c0,.65-1.51,1.26-2.08,1.21s-.91-.17-.88.43,1.45.75,1.82.77.39.65,0,.8-1.84.9-2.33,1.12-.54,1.09-.54,2.26.71,1.45,1,1.45.38-.65.4-1.22-.47-1.08-.61-1.49S35.75,19,36,19s.28.45.51.71.63,0,.78-.23.49-.18.56,0-.16.24-.52.38-.3.26-.16.54a.44.44,0,0,1-.37.65c-.34,0-.43.45-.43.45s0,0,0,.12.84,1.07,1.22,1.15.56-.24,1-1.15,1.13.35,1.39.78,1.12,1.11,1.18-.1A39.18,39.18,0,0,1,42,16.67c.4-1.69-1-1.1-1-1.1l-3.15,2,0-.6,2.55-2.37c.27-.26-.35-.86-.54-.58s-.57.51-.81.37.33-.63.22-1-1.66-1.51-1.66-1.51Zm3,4.8a24.76,24.76,0,0,0,.46-2.79c0-.86-1,.07-1.37.26s-.28.44,0,.51A.23.23,0,0,1,40,18a1.76,1.76,0,0,0-1,2c.33,1.37.78,1.47,1.2,1.6s.52-2,.52-1.95M38.43,17.9c-.09-.09-.56,0-.84.17s-.71.43-.53.58a.76.76,0,0,0,.89-.11,2.88,2.88,0,0,0,.48-.64m41.94-6.26a1.85,1.85,0,0,1,.2.8,5.28,5.28,0,0,1-.69,1L77.71,12.1s-.38,0-.38.25.15.39.47.61A1.32,1.32,0,0,1,78.52,14c0,.55.06,1.5-.12,1.44a.58.58,0,0,1-.49-.58c0-.43-.81-.58-.92-.43s0,.4.08,1-.17,1,.15,1.13.55.13.55.4-2.14,2.06-2,2.33.26.92.81.74,3-2.3,3.76-2.76,2.25-1.63,2.54-1.35-1.19,1.53-1.62,1.62a1.77,1.77,0,0,0-1.1.4c-.57.43-1.3.62-1,.77s1.19-.18,1.13.12.2.77-.2.83a6.87,6.87,0,0,0-2,.52c-.66.34-2,1-1.79,1.38A11.29,11.29,0,0,0,78.17,23c.64.46,1.21.92,1.45,1.07s1.32.4,1.32-.64,0-2.94,0-2.94h1.76a.5.5,0,0,0,.34-.59A.93.93,0,0,0,82.3,19c-.23,0-.34.06-.34.3h-.79v-.61s.64-.37.64-.64-.12-.31.4-.68,1.48-1,1.48-1.56-.64-.58-1.13-.58a6.69,6.69,0,0,1,1.07-1.57.88.88,0,0,0,.09-1.28c-.29-.31-.72-.16-1,.12A15.73,15.73,0,0,1,80.51,14c-.17,0-.61-.18-.17-.52s1.51-.41,1-1.35-1-.49-1-.49m-.53,9.13a8.14,8.14,0,0,0-1.54.49c-.59.3-1.2.14,0,1s1.42,1.28,1.51,1a22.61,22.61,0,0,0,0-2.43M78.26,16.5a.37.37,0,0,0,.59,0c.32-.35.26-.14.67-.25s.41-.05.43-.35-.06-.2-.26-.16-.21,0-.24-.21-.06,0-.54.1-.65.89-.65.89m.18.71c-.28.23-1.34,1.08-1,1.33s1.19-.71,1.38-.82,1.78-1,1.56-1.26-1.9.75-1.9.75m.71-3.1s-.26-.13-.24.12-.13.5.18.5.41,0,.41-.27-.35-.35-.35-.35m1.58.88s-.52,0-.46.2.2.35.42.28.21,0,.21-.16a.4.4,0,0,0-.17-.32m1.73-.37c.17-.41.89-1.29.6-1.49s-.51-.16-.84.14-.56.27-.56.5-.09.25.11.37.32.14.21.39-.13.36-.32.48-.26-.12-.26.16,0,.3,0,.46-.07.34.24.32.3,0,.32-.3a.76.76,0,0,1,.15-.48c.11-.16.2-.14.26-.25a1.26,1.26,0,0,0,.11-.3"/><path class="cls-4" d="M26.28,13.56c.53,0,.38,1.35.38,1.35l-1.21.64s-.6.56.3.56a3.86,3.86,0,0,0,2-.88L27.56,17a31.32,31.32,0,0,1-3.91,2c-.45,0-.91.56-.15,1s.45.32,1.28-.32,2.71-1.83,2.71-1.83l.07,1.35-1.35,1s-.83.43,0,1A1.13,1.13,0,0,0,27.64,21s-.08,1-.15,1.44-.53.72.22,1.51,1.16.46,1.16-.26-.18-3.73-.18-3.73.9-.24,1-.64,0-.47-.75-.47-.75-.24-.75-.24l.23-1.44a29.42,29.42,0,0,0,3-1.06c.79-.37.81-.65.62-.78a2,2,0,0,0-1.35,0,13.9,13.9,0,0,0-2.19,1l.14-1.13s.15-1,.75-1,1.73-.63,1.66-1-.29-.31-.82-.23c-.21,0-.42-.61-.52-.55-.39.24-.08,1.32-.91,1.18-.2,0,0-.27-.09-.3a.52.52,0,0,0-.66.25l-.49.87s-.43-1-.05-1.38S31,10.84,31,10.84s.37-1-.46-.72a10.27,10.27,0,0,0-2.25,1.76s-.3.64-.53.16.15-1-.22-1-1.06-.48-1.06.16c0,.25-.18.28-.29.4s-.14.24-.13.29,0,.07.17.13.25.54.25.54c-.22.09-.49.11-.6.29a.48.48,0,0,0,.45.75"/><path class="cls-4" d="M46.77,12.27a1.19,1.19,0,0,1,.44.78A5.53,5.53,0,0,1,46,15.36c-.45.51-1.11,1.25-1.4,1.62-.13.17-.2.28,0,.38s.48.1.6-.08,2.62-3,3-3.47a.78.78,0,0,0-.08-1.21c-.87-.71-1.35-.33-1.35-.33m-1.39,7.4c-.09,1.41.12,1.61.34,1.64s.87,0,.82-1.41a1.37,1.37,0,0,0-1.15-1.47Zm2.08-1.61c-.05,0-.65.37-.63.73s0,1.12.42,1.16.79-.26.69-.94-.43-1-.48-1m.16-2.47a12.74,12.74,0,0,1-1.26,1.56c-.35.27.09.47.42.57s.84.23,1-.32.15-.87.29-.95.26-.58.07-.74a.8.8,0,0,0-.53-.12m.78,2.85s-.14.67.33.57,1.08-.66,1.09-.37,0,3.47,0,3.73a.68.68,0,0,0,.51.54c.18,0,.58-.19.58-.95V18.7s.47.35,1.25-1c.54-.93.16-1.19-.12-1.27s-.24,0-.43.1a2.35,2.35,0,0,1-.85.45c-.29,0,0-.24-.16-.24s-.52-.1-.52.08,0,1,0,1Zm2.79-1.3c-.1.11-.39.48-.25.57a.32.32,0,0,0,.5-.09c.15-.26.51-.49.28-.58a.76.76,0,0,0-.53.1m-2.1-1a.77.77,0,0,0,.74.41,5,5,0,0,0,2-1.22c.34-.31.7-.68.42-1s-.58-.24-1.12.21a12.89,12.89,0,0,1-1.79,1.09c-.32.16-.46.08-.23.47"/><path class="cls-4" d="M62,12.32c-.21-.23-.76-.12-1.11.35s-.32,1-.15,1.11a1.55,1.55,0,0,0,1.52-.53c.39-.49-.26-.93-.26-.93m-3.29,1.39c-.3-.16-.67-.21-.83,0s-.42.55,0,.89.91.57,1.19.19c.57-.92-.4-1.1-.4-1.1M61,15.81c.36,0,.24.38,0,.58a1.57,1.57,0,0,0-.54,1.15c0,.52.69.71,1,.71s0-.58,0-1A2.38,2.38,0,0,1,62.35,16c.43-.39.07-.9-.48-1s-1.21.77-1.21.77Zm-.91,2-.33-.35a16,16,0,0,1-.3,2.22c-.19.58.09,1.67.75,1.77a13,13,0,0,0,3-.07c.43-.13.85-.7.49-1.64s-.55-1.19-.7-1.15-.21.32-.12.74.36,1-.12,1.15-2.37.55-2.46-.45a9.26,9.26,0,0,0-.18-2.22m-3.87-4.07c-.36.26-1,.92-.93,1.41.08.65.32.94.83.85s.73-1.48.66-2.14c0-.41-.31-.31-.56-.12m1.28,2v.44l-.5.32s.07.29.45.21,0,.64-.3.61-.51,0-.56.16-.88.14-.88.14-.65.71-.35,1,.78-.16.93-.24.38-.37.68-.05.25.37-.1.61-.23.43,0,.56.22.35-.35.35-.35-.16-.4-.29S55,20,54.8,20.55s.25,1,.68.83,1.16-1.07,1.54-.88.07.4-.13.82a1.61,1.61,0,0,0,.24,1.56c.35.32.7-.37.7-.83s-.13-1.78.06-1.94.44-.69.65-.83a.81.81,0,0,0,.39-.71c0-.35-.08-.42-.39-.49s-.13-.64.05-.69.49-.28.47-.53-.13-.58-.39-.55-.11-.44-.5-.6-.67-.17-.65.06"/><path class="cls-4" d="M73.91,21.54a3.07,3.07,0,0,1-1.64-.19c-.67-.36-1.7-1.1-1.7-1.1s-.22-.18-.23.1a1.84,1.84,0,0,0,.46.91c.16.18.8,1.69,1.47,1.63s1.64-1.35,1.64-1.35M70.6,14.7a2.85,2.85,0,0,0-.73-1.56c-.4-.35-.67-.35-.49.49a14.64,14.64,0,0,1-.27,4.49c-.28.61-1,.81-1.83.9s-1.49-.26-1.22.36.46,1.32,1,1S69,19,68.92,19.77s-1,2.42-2.49,2.16c0,0-.25.61.61.77s2.61-1.29,2.49-3.55c0,0,2-.84,2.77-1.23s.21-.74,0-.8-.55-.39-.94,0-1.31,1.16-1.52.8.15-1.23.42-1.74a4.11,4.11,0,0,0,.31-1.45"/><path class="cls-4" d="M41,15.57l-3.14,2,0-.6,2.55-2.37c.27-.26-.34-.86-.54-.58s-.57.51-.81.37.33-.63.22-1-1.66-1.51-1.66-1.51l.09,2.92c0,.65-1.51,1.26-2.08,1.21s-.91-.17-.88.43,1.45.75,1.82.77.39.65,0,.8-1.84.9-2.33,1.12-.54,1.09-.54,2.26.71,1.45,1,1.45.38-.65.4-1.22-.47-1.08-.61-1.49S35.75,19,36,19s.28.45.51.71.63,0,.78-.23.49-.18.56,0-.16.24-.52.38-.3.26-.16.54a.44.44,0,0,1-.36.65c-.35,0-.44.45-.44.45s0,0,0,.12.84,1.07,1.22,1.15.56-.24,1-1.15,1.13.35,1.4.78,1.11,1.11,1.17-.1A39.18,39.18,0,0,1,42,16.67c.4-1.69-1-1.1-1-1.1m-3,3a.74.74,0,0,1-.88.11c-.19-.15.24-.41.52-.58s.75-.26.84-.17a2.88,2.88,0,0,1-.48.64m2.76,1.08s-.1,2.09-.52,1.95-.87-.23-1.2-1.6a1.75,1.75,0,0,1,1-2,.23.23,0,0,0-.15-.38c-.31-.07-.41-.32,0-.51s1.41-1.12,1.37-.26a24.76,24.76,0,0,1-.46,2.79"/><path class="cls-4" d="M82.56,15.26a6.69,6.69,0,0,1,1.07-1.57.88.88,0,0,0,.09-1.28c-.29-.31-.73-.16-1,.12A15.43,15.43,0,0,1,80.51,14c-.17,0-.61-.18-.17-.52s1.51-.41,1-1.35-1-.49-1-.49a1.85,1.85,0,0,1,.2.8,5.28,5.28,0,0,1-.69,1L77.71,12.1s-.38,0-.38.25.15.39.47.61A1.32,1.32,0,0,1,78.52,14c0,.55.06,1.5-.12,1.44a.58.58,0,0,1-.49-.58c0-.43-.81-.58-.92-.43s0,.4.08,1-.17,1,.15,1.13.55.13.55.4-2.14,2.06-2,2.33.26.92.81.74,3-2.3,3.76-2.76,2.25-1.62,2.54-1.35-1.19,1.53-1.62,1.63a1.69,1.69,0,0,0-1.1.39c-.57.43-1.3.62-1,.77s1.19-.18,1.13.12.2.77-.2.83a6.87,6.87,0,0,0-2,.52c-.66.34-2,1-1.79,1.38A11.29,11.29,0,0,0,78.17,23c.64.46,1.21.92,1.45,1.07s1.32.4,1.32-.64,0-2.95,0-2.95h1.76a.49.49,0,0,0,.34-.58A.93.93,0,0,0,82.3,19c-.23,0-.34.06-.34.3h-.79v-.61s.64-.37.64-.64-.11-.31.4-.68,1.48-1,1.48-1.56-.64-.58-1.13-.58m-3.65-1c0-.25.24-.11.24-.11s.35.09.35.34-.11.27-.41.27-.16-.25-.18-.5m0,1.38c.48-.14.52-.32.54-.1s0,.26.24.21.28-.14.26.16,0,.23-.43.35-.35-.1-.67.25a.37.37,0,0,1-.59,0s.18-.76.65-.89m-.13,2.11c-.19.11-1.08,1.08-1.38.82s.76-1.1,1-1.33c0,0,1.68-1,1.9-.75S79,17.6,78.78,17.72m1.91-2.25c-.22.07-.35-.07-.41-.28s.45-.2.45-.2a.4.4,0,0,1,.17.32c0,.2,0,.09-.21.16m1.66-.55c-.06.11-.15.09-.26.25a.76.76,0,0,0-.15.48c0,.26,0,.28-.32.3s-.24-.16-.24-.32,0-.18,0-.46.06-.05.26-.16.22-.23.32-.48,0-.28-.21-.39-.11-.14-.11-.37.24-.21.56-.5.56-.35.85-.14-.44,1.08-.61,1.49a1.26,1.26,0,0,1-.11.3M79.81,23.2c-.09.3-.31-.16-1.51-1s-.59-.66,0-1a8.14,8.14,0,0,1,1.54-.49,22.61,22.61,0,0,1,0,2.43"/><polygon class="cls-3" points="22.39 79.7 47.84 43.43 47.84 28.7 48.3 28.7 57.36 28.7 57.81 28.7 57.81 43.43 84.03 80.7 83.29 81.22 56.99 43.84 56.91 43.57 56.91 29.61 56.27 29.61 52.92 31.32 49.64 29.61 48.75 29.61 48.75 43.57 48.67 43.84 23.13 80.22 22.39 79.7"/><polygon class="cls-5" points="38.43 7.76 38.43 5.35 16.33 5.35 18.59 7.76 38.43 7.76"/><polygon class="cls-5" points="67.55 5.35 67.55 7.76 87.32 7.76 89.4 5.35 67.55 5.35"/><path class="cls-4" d="M45,1.33V7.66H42.65V4l-1.83.56V2.75c1.37,0,2.17-.47,2.4-1.42Zm1.94,4.81L48.73,6a.78.78,0,0,0,.82.48c.69,0,1-.47,1-1.42a2.56,2.56,0,0,1-1.6.45,2.07,2.07,0,0,1-2.26-2c.05-1.43,1-2.17,2.71-2.22,2.08,0,3.11,1.09,3.11,3.25s-1,3.1-2.93,3.15c-1.58,0-2.49-.53-2.71-1.59m2.64-1.8q.93-.06.93-.9a.85.85,0,0,0-.9-.79.8.8,0,0,0-.85.86.77.77,0,0,0,.82.83M52.9,5.48h1.91a.93.93,0,0,0,.27.69,1.38,1.38,0,0,0,.73.25c.56,0,.86-.27.92-.73S56.32,5,55.43,5V3.89c.81,0,1.22-.16,1.22-.62s-.27-.55-.8-.55-.83.22-.88.65H53.13q.15-1.93,2.79-2c1.69,0,2.57.63,2.64,1.73a1.24,1.24,0,0,1-.8,1.25,1.37,1.37,0,0,1,1,1.31c0,1.38-1,2.09-3.07,2.11-1.83-.05-2.77-.79-2.79-2.25m6.25,0h1.91a.93.93,0,0,0,.27.69,1.38,1.38,0,0,0,.73.25c.56,0,.86-.27.92-.73S62.57,5,61.67,5V3.89c.82,0,1.23-.16,1.23-.62s-.27-.55-.8-.55-.83.22-.89.65H59.38q.15-1.93,2.79-2c1.69,0,2.57.63,2.64,1.73A1.24,1.24,0,0,1,64,4.31a1.35,1.35,0,0,1,1,1.31C65,7,64,7.71,61.94,7.73c-1.84-.05-2.77-.79-2.79-2.25"/><path class="cls-6" d="M25.61,82.81l27-38.35,27.82,38.7-2.34,2.46a41.18,41.18,0,0,0,4.79-5L57,43.83l-.08-.26v-14h-.64l-3.35,1.71-3.28-1.71h-.89v14l-.08.26-25.28,36c.69,1,1.43,2,2.22,3"/><polygon class="cls-4" points="29.25 29.31 29.25 44.47 29.18 44.71 20.36 57.04 20.36 64.95 31.14 50.03 31.46 49.58 31.8 50.03 36.83 56.82 39.9 52.67 33.83 44.71 33.74 44.46 33.74 29.31 29.25 29.31"/><polygon class="cls-3" points="31.56 30.84 31.56 46.61 38.54 54.51 38.28 54.85 31.37 47.01 22.16 59.2 21.83 58.95 31.14 46.62 31.14 30.84 31.56 30.84"/><path class="cls-3" d="M22,59.51a.46.46,0,1,0,0-.92.46.46,0,0,0,0,.92"/><path class="cls-3" d="M31.41,31.26a.46.46,0,0,0,0-.92.46.46,0,0,0,0,.92"/><polygon class="cls-3" points="74.09 30.84 74.09 45.74 67.11 54.51 67.36 54.85 74.28 46.14 83.49 59.2 83.82 58.95 74.5 45.75 74.5 30.84 74.09 30.84"/><path class="cls-3" d="M83.68,59.51a.46.46,0,0,0,0-.92.46.46,0,1,0,0,.92"/><path class="cls-3" d="M74.24,31.26a.46.46,0,1,0,0-.92.46.46,0,1,0,0,.92"/><polygon class="cls-3" points="53.13 45.15 53.13 33.99 52.22 33.99 52.22 45.03 52.63 44.46 53.13 45.15"/><polygon class="cls-3" points="25.59 82.85 52.63 44.46 80.7 83.47 77.65 86.11 52.78 50.52 27.76 86.11 25.59 82.85"/><polygon class="cls-7" points="45.41 64.3 52.89 75.18 60.34 64.47 60.69 64.71 53.14 75.54 65.76 93.9 65.42 94.14 52.89 75.91 40.14 94.21 39.8 93.97 52.63 75.54 45.07 64.53 45.41 64.3"/><path class="cls-3" d="M52.88,76a.48.48,0,1,0-.48-.47.47.47,0,0,0,.48.47"/><path class="cls-5" d="M0,75.54v1.59c4.35,1.52,8.42,3.24,11.59,6.27a15.37,15.37,0,0,0,1.48-.92l0,0c-3.53-3.37-8.2-5.27-13-7"/><path class="cls-5" d="M106.68,75.54v1.59c-4.36,1.52-8.42,3.24-11.6,6.27a16.6,16.6,0,0,1-1.47-.92l0,0c3.53-3.37,8.19-5.27,13-7"/><path class="cls-2" d="M5.64,88.47v1.59c7.44.67,11.64,2.38,19.63,5.59,7.76,3.12,20.83,6.76,28.9,7,8.25.23,16.35-3.42,23.92-6.58a94.81,94.81,0,0,1,22.51-6.76V87.72a95.28,95.28,0,0,0-22.51,6.76c-7.57,3.16-15.67,6.81-23.92,6.58-8.07-.24-21.14-3.88-28.9-7-8-3.21-12.19-4.92-19.63-5.59"/><path class="cls-5" d="M5.64,99.65v1.68c5.62,1.53,10.43,2.84,16,4.87,10.27,3.74,21.3,8.13,31.93,8.16s20.9-5.28,31-9c5.31-2,10.46-3.92,16-3.73V100c-5.54-.19-10.69,1.78-16,3.73-10.13,3.72-20.27,9-31,9s-21.66-4.42-31.93-8.17c-5.57-2-10.38-3.33-16-4.86"/><path class="cls-4" d="M11.05,97.07l.11-1,.17.06c0,.56.22.9.59,1a.45.45,0,0,0,.61-.36c.06-.23-.1-.54-.47-.93a1.55,1.55,0,0,1-.54-1.29A.79.79,0,0,1,12.61,94a1.54,1.54,0,0,1,.53.3l.11.06.08,0h0l.09,0-.11.87-.17-.06a1,1,0,0,0-.57-.92c-.27-.06-.44,0-.51.23s.09.45.39.78a4.35,4.35,0,0,1,.57.75,1.28,1.28,0,0,1,.11.77.85.85,0,0,1-1.17.64l-.58-.27-.14-.11s-.09,0-.11,0Z"/><path class="cls-4" d="M35.27,102.78l0-.2,1.41.44,0,.2-.07,0c-.25-.07-.39,0-.43.28l-.47,2.06c-.08.27,0,.44.26.5l.07,0-.05.2-1.4-.44,0-.2h.06c.21.09.35,0,.41-.26l.47-2.08a.35.35,0,0,0-.24-.49Z"/><path class="cls-4" d="M13.89,96.37A1.55,1.55,0,0,1,16,95.22a1.82,1.82,0,0,1,1.15,2.2,1.51,1.51,0,0,1-2.11,1.12,1.76,1.76,0,0,1-1.17-2.17m.71,0c-.24,1.06,0,1.74.61,2s1-.16,1.26-1c.2-1,0-1.7-.62-2s-1,.16-1.25,1"/><path class="cls-4" d="M20,97l.05-.2,1.13.41-.06.2h0c-.28-.1-.45,0-.5.28L20.29,99a1.09,1.09,0,0,1-1.57.89,1.28,1.28,0,0,1-1-1.63l.4-1.54c.07-.24,0-.39-.23-.45l-.08,0,.05-.2,1.37.49-.05.2-.07,0a.28.28,0,0,0-.4.23l-.4,1.53a.85.85,0,0,0,.57,1.13c.55.2.91,0,1.1-.63l.32-1.26c.11-.36,0-.58-.22-.65Z"/><path class="cls-4" d="M30.55,103.31l.19.06a3.81,3.81,0,0,1-.5.84,1,1,0,0,0-.25-.11L29.7,104l-.48-.13a1.83,1.83,0,0,1-1.16-2.21,1.55,1.55,0,0,1,2.11-1.09,1.91,1.91,0,0,1,.66.42.55.55,0,0,0,.13.08.06.06,0,0,0,.09,0l.12,0-.2.92L30.8,102a1.11,1.11,0,0,0-.66-1.12c-.69-.17-1.16.16-1.42,1s.05,1.56.73,1.88a.91.91,0,0,0,1.1-.42"/><path class="cls-4" d="M23.16,98.34l-.64,2.35a.35.35,0,0,0,.27.52l.1,0-.06.2-1.56-.6.05-.2.15.06c.23.1.38,0,.45-.25l.65-2.35-.53-.2c-.27-.17-.48,0-.63.43l-.19-.08.36-.93.13,0a.24.24,0,0,0,.07.12.11.11,0,0,0,.11.06l2.07.8a.18.18,0,0,0,.23,0l.16.06-.2,1L24,99.32c.09-.48,0-.74-.31-.78Z"/><path class="cls-4" d="M25.9,102.41l.07,0c.21.1.35,0,.43-.28l.25-.9-1.44-.56-.26.92c-.09.27,0,.44.24.52l.07,0-.06.2-1.4-.53.06-.2.07,0c.21.1.35,0,.42-.25l.57-2.05a.36.36,0,0,0-.22-.49l-.07,0,.05-.2,1.4.53-.06.2-.07,0c-.24-.1-.38,0-.43.23l-.23.82,1.44.55.22-.8a.38.38,0,0,0-.25-.52h0l0-.2,1.4.54-.05.2-.09,0c-.23-.08-.37,0-.42.24l-.57,2c-.08.26,0,.43.24.51l.07,0-.06.2-1.4-.54Z"/><path class="cls-4" d="M32.93,105l.07,0c.21.09.35,0,.42-.29l.22-.91-1.46-.5-.23.94c-.07.26,0,.43.25.5l.07,0,0,.2-1.42-.47.05-.21.07,0c.21.09.36,0,.42-.28l.5-2.07a.35.35,0,0,0-.23-.47l-.07,0,.05-.2,1.41.48,0,.2-.07,0c-.24-.09-.39,0-.43.24l-.2.84,1.46.49.19-.81a.38.38,0,0,0-.26-.51h0l0-.2,1.41.48,0,.2-.09,0c-.22-.08-.36,0-.41.25L34,105c-.08.27,0,.44.25.51l.07,0-.05.2-1.41-.48Z"/><path class="cls-4" d="M37.44,104l-.42,2c-.1.31,0,.49.35.56l0,.21-1.08-.32,0-.21h0c.22.08.35,0,.4-.23l.51-2.42a1.1,1.1,0,0,0-.32-.2l0-.2.9.26,1.35,2.77.34-1.58c.1-.33,0-.52-.32-.57h-.06l.05-.21,1.14.34,0,.2h-.06c-.26-.08-.4,0-.42.16l-.58,2.78-.24-.07Z"/><path class="cls-4" d="M42.06,106.74l-1-.24-.28.57c-.09.15-.12.26-.08.33s.15.12.35.15h0l0,.21-1.19-.3,0-.2H40c.2.08.37,0,.53-.38l1.22-2.33,0-.16.67.17.4,2.91c0,.35.16.55.37.59l0,.2-1.45-.36,0-.21.16,0a.24.24,0,0,0,.24,0,.4.4,0,0,0,0-.31Zm0-.31-.19-1.35-.61,1.15Z"/><path class="cls-4" d="M45.54,106.12l-.24,2q-.11.48.39.51l0,.21-1.11-.18,0-.21h0c.22,0,.34,0,.37-.28l.29-2.47a.9.9,0,0,0-.34-.16l0-.21.92.15,1.59,2.59.19-1.61c.07-.34,0-.52-.37-.53h-.05l0-.21,1.17.19,0,.21h-.05c-.27,0-.4,0-.4.22l-.34,2.84-.25,0Z"/><path class="cls-4" d="M48.58,107.7a1.7,1.7,0,1,1,3.39.23,1.61,1.61,0,0,1-1.86,1.61,1.63,1.63,0,0,1-1.53-1.84m.69-.18c0,1.1.28,1.71,1,1.84s.94-.4,1-1.29c0-1.07-.3-1.67-.94-1.8s-1,.41-1.07,1.25"/><path class="cls-4" d="M53.28,108.29v.83c0,.28.11.42.36.4h.14v.21H52.19v-.21h.07c.28,0,.41-.1.4-.4V107a.34.34,0,0,0-.38-.4h-.09v-.21h.13a3.47,3.47,0,0,1,.46,0c.32,0,.58,0,.75,0a1.6,1.6,0,0,1,1.27.38,1,1,0,0,1,.22.61.91.91,0,0,1-.68.87,3.57,3.57,0,0,1,.41.57,3.81,3.81,0,0,0,.37.53.77.77,0,0,0,.61.34v.16h-.28a1.14,1.14,0,0,1-1-.31,2.5,2.5,0,0,1-.33-.45,4.77,4.77,0,0,0-.48-.7Zm0-1.77v1.56h.18c.58,0,.88-.24.88-.77s-.28-.76-.81-.79Z"/><path class="cls-4" d="M57.63,109.51l-1.15-2.59,0,1.92c-.05.4.08.57.4.51v.2l-1,.07v-.21q.42.06.36-.6l0-2c0-.27-.08-.4-.34-.38v-.21l1-.06,1,2.2.76-2.31,1-.06v.21q-.45,0-.3.42l.19,2c0,.39.11.55.42.51v.21l-1.43.09v-.21h.07c.25,0,.37-.1.34-.38a1.07,1.07,0,0,0,0-.25l-.19-1.91-.89,2.8Z"/><path class="cls-4" d="M61.91,107.7l-1,.18-.09.66c0,.18,0,.29,0,.33s.18,0,.38,0h0l0,.21-1.2.22,0-.2.07,0c.21,0,.33-.2.38-.58L61,105.8l-.07-.14.67-.12,1.27,2.54c.14.32.31.45.52.39l0,.21-1.47.28,0-.21.16,0c.12,0,.19-.06.22-.13a.38.38,0,0,0-.06-.31Zm-.12-.28-.59-1.17L61,107.57Z"/><path class="cls-4" d="M66.12,107,66,108l-2.41.6,0-.2.08,0a.36.36,0,0,0,.31-.47l-.39-2.13c0-.24-.18-.34-.41-.28l-.09,0,0-.2,1.52-.38,0,.2-.14,0a.33.33,0,0,0-.26.45l.39,2.17c0,.2.1.26.27.19l.58-.15c.17,0,.34-.25.5-.64A1.77,1.77,0,0,0,66,107Z"/><path class="cls-4" d="M68.93,103.76l-.05-.2,1.13-.41,0,.2,0,0a.39.39,0,0,0-.28.56l.33,1.29a1.36,1.36,0,0,1-.88,1.78c-.85.29-1.38,0-1.59-.71l-.4-1.53c0-.25-.18-.33-.39-.23l-.09,0,0-.2,1.37-.5,0,.2-.07,0a.35.35,0,0,0-.22.45l.4,1.54a.69.69,0,0,0,1,.56,1,1,0,0,0,.61-1.26l-.32-1.25c-.08-.37-.25-.5-.5-.39Z"/><path class="cls-4" d="M70.91,103.44l.55,1.92c.06.32.24.4.55.25l.06.2-1,.42L71,106h0a.32.32,0,0,0,.23-.45l-.69-2.36a1,1,0,0,0-.36,0l-.06-.2.88-.35,2.41,1.45L73,102.61c-.06-.34-.24-.44-.53-.27l0,0-.06-.2,1.11-.45.06.2,0,0c-.26.1-.35.24-.28.4l.79,2.71-.23.1Z"/><path class="cls-4" d="M86,99.46l-.37-.88.17-.06c.28.45.61.6,1,.45a.55.55,0,0,0,.34-.69c-.06-.23-.34-.39-.84-.47s-.94-.35-1-.71a1,1,0,0,1,.63-1.19,1.78,1.78,0,0,1,.58-.1l.12,0s0,0,.06-.07,0,0,0,0l.09,0,.32.79-.17.07a.75.75,0,0,0-.9-.39.49.49,0,0,0-.32.53c.06.18.29.31.7.38a4.07,4.07,0,0,1,.82.25,1,1,0,0,1-.2,1.87l-.62.16h-.17a.14.14,0,0,0-.06.12Z"/><path class="cls-4" d="M73.74,101.76l-.07-.19L75,101l.06.2-.07,0a.36.36,0,0,0-.22.52l.62,2c.07.27.22.35.45.23l.07,0,.06.2-1.36.59-.06-.2,0,0a.36.36,0,0,0,.21-.49l-.63-2c-.06-.25-.21-.33-.43-.24Z"/><path class="cls-4" d="M82.94,99.33l.24.78c.07.26.22.34.45.23l.13-.06.06.2-1.49.64-.06-.2.07,0a.36.36,0,0,0,.25-.53l-.62-2c-.06-.25-.22-.33-.47-.22l-.08,0L81.36,98l.12,0a3.24,3.24,0,0,1,.42-.23l.69-.35c.61-.26,1-.31,1.31-.15a.86.86,0,0,1,.38.49,1,1,0,0,1-.39,1.09,3.07,3.07,0,0,1,.55.36,2.92,2.92,0,0,0,.5.35.69.69,0,0,0,.67.07l0,.16-.26.12c-.47.21-.81.25-1,.1a1.91,1.91,0,0,1-.43-.29,4.39,4.39,0,0,0-.66-.46Zm-.51-1.67.45,1.47.17-.07A.81.81,0,0,0,83.64,98c-.15-.45-.48-.6-1-.41Z"/><path class="cls-4" d="M77.68,103.42l-1.83-2.11c-.22-.27-.41-.34-.59-.21l0,0-.06-.2,1.48-.68.07.2-.07,0q-.27.12-.3.27c0,.08,0,.18.14.3l1.22,1.39,0-2.14c0-.2-.11-.25-.35-.16l-.1.05-.07-.2,1.09-.49.06.2h0c-.22.07-.33.33-.33.76L78,103.3Z"/><path class="cls-4" d="M80.51,98.72l-.93.42.36,1.12.7-.31c.23-.08.3-.24.2-.5l.17-.08.33,1-.17.08c-.06-.26-.23-.33-.5-.18l-.63.28.29.91c0,.21.13.26.25.18l.72-.33c.26-.09.37-.33.32-.73l.16-.07.21.81-2.57,1.16-.07-.2.17-.07a.35.35,0,0,0,.22-.5l-.66-2q-.1-.37-.48-.18l0,0-.06-.2,2.35-1.06.28.7L81,99c-.14-.31-.29-.41-.45-.31"/><path class="cls-4" d="M87.52,95.49l0-.2,1.4-.48,0,.21-.08,0a.35.35,0,0,0-.24.5l.49,2c.06.28.2.37.44.27l.07,0,.05.2-1.4.47,0-.2.05,0c.22-.05.3-.22.24-.47L88,95.75c0-.26-.19-.36-.42-.28Z"/><path class="cls-4" d="M91.06,94.37l.54,2.39c.05.29.2.38.47.26l.1,0,0,.2-1.59.51,0-.21.15,0c.23,0,.32-.22.26-.49l-.54-2.39-.54.17c-.3,0-.41.28-.33.76l-.19.06-.13-1,.13,0a.18.18,0,0,0,.11,0s.07,0,.13,0l2.1-.67a.21.21,0,0,0,.18-.17l.16,0,.29,1-.17.06c-.14-.47-.35-.62-.62-.46Z"/><path class="cls-4" d="M95,95.11l.1.73c0,.28.17.39.45.31h.07l0,.2-1.56.33,0-.21.12,0c.23,0,.32-.18.28-.44l-.11-.75-1.2-1.31a.37.37,0,0,0-.43-.17h0l0-.21,1.48-.31,0,.21h-.07a.46.46,0,0,0-.22.14.16.16,0,0,0,.06.18l.9,1,.38-1.09c0-.15,0-.26,0-.32s-.11-.07-.24-.06H95l0-.2L96,92.87l0,.21a.59.59,0,0,0-.46.48Z"/></g></g></svg>