<svg xmlns="http://www.w3.org/2000/svg" viewBox="0 0 301.78 71.06"><defs><style>.cls-1{fill:#004073;fill-rule:evenodd;}</style></defs><title>资源 2</title><g id="图层_2" data-name="图层 2"><g id="图层_1-2" data-name="图层 1"><path class="cls-1" d="M15.8,17.33c2.61,0,1.87,6.73,1.87,6.73l-6,3.16S8.71,30,13.19,30s9.7-4.35,9.7-4.35l-.75,8.71S5,44.25,2.74,44.25-1.74,47,2,49s2.23,1.58,6.34-1.59,13.43-9.1,13.43-9.1L22.14,45l-6.71,4.75s-4.11,2.12,0,4.75a5.6,5.6,0,0,0,7.09-.4s-.38,4.75-.75,7.13-2.61,3.56,1.12,7.52,5.73,2.25,5.73-1.32S27.74,49,27.74,49s4.48-1.19,5.22-3.17,0-2.38-3.73-2.38-3.73-1.18-3.73-1.18l1.14-7.1s10.17-3,14.87-5.27C45.42,28,45.56,26.69,44.6,26c-1.23-.85-4.53-.67-6.67,0a66.91,66.91,0,0,0-10.87,5.15l.68-5.57s.75-4.75,3.73-4.75,8.58-3.17,8.21-5.15-1.43-1.53-4-1.14c-1,.16-2.09-3-2.58-2.72-1.92,1.2-.39,6.56-4.52,5.85-1-.17.07-1.32-.45-1.48a2.6,2.6,0,0,0-3.29,1.24l-2.43,4.3s-2.09-4.86-.23-6.84S38.93,3.87,38.93,3.87,40.8-1.28,36.69.3,25.5,9,25.5,9,24,12.18,22.89,9.8s.74-4.75-1.12-5.14-5.22-2.38-5.22.79c0,1.24-.89,1.39-1.47,2-.78.81-.67,1.18-.62,1.42s.12.36.84.67c1.25.53,1.25,2.65,1.25,2.65-1.12.44-2.42.57-3,1.44a2.36,2.36,0,0,0,2.22,3.71"/><path class="cls-1" d="M117.39,10.93s2.21,1.77,2.21,3.88-3.21,8.28-6.07,11.47c-2.23,2.49-5.5,6.18-6.93,8-.65.84-1,1.39.21,1.88,1,.39,2.42.51,3-.4.88-1.45,13-15,14.7-17.18s1.63-4.38-.39-6c-4.34-3.5-6.71-1.66-6.71-1.66M110.5,47.65c-.46,7,.58,8,1.7,8.14s4.28-.19,4.06-7-5.72-7.29-5.72-7.29Zm10.32-8c-.26.21-3.21,1.81-3.14,3.61s.13,5.56,2.09,5.77,3.93-1.32,3.41-4.65-2.1-4.94-2.36-4.73m.81-12.24s-4.53,6.37-6.26,7.72.46,2.32,2.09,2.8,4.17,1.16,5-1.54.72-4.35,1.44-4.73,1.27-2.9.37-3.67a4,4,0,0,0-2.63-.58m3.86,14.11s-.72,3.31,1.6,2.84,5.37-3.3,5.44-1.84-.06,17.22-.06,18.48A3.29,3.29,0,0,0,135,63.7c.87,0,2.85-.92,2.85-4.69V42.83s2.37,1.76,6.24-4.94c2.66-4.61.8-5.93-.62-6.31-1.21-.32-1.16-.15-2.11.51-1.19.85-3.25,2.19-4.22,2.19-1.43,0-.08-1.17-.79-1.17s-2.61-.5-2.61.42-.08,5-.08,5Zm13.8-6.46c-.47.58-1.9,2.4-1.23,2.85a1.56,1.56,0,0,0,2.47-.45c.75-1.27,2.55-2.43,1.42-2.85a3.79,3.79,0,0,0-2.66.45M128.89,30a3.8,3.8,0,0,0,3.65,2.07c3.24-.35,8.21-4.59,9.86-6.08s3.48-3.36,2.07-4.77-2.9-1.15-5.55,1.06a63.9,63.9,0,0,1-8.9,5.4c-1.55.79-2.27.43-1.13,2.32"/><path class="cls-1" d="M192.69,11.2c-1.09-1.15-3.79-.58-5.52,1.73s-1.62,5.06-.75,5.52,5.13.4,7.55-2.63c1.94-2.42-1.28-4.62-1.28-4.62m-16.35,6.92c-1.45-.84-3.31-1.06-4.09.08s-2.11,2.73.2,4.4,4.51,2.82,5.87.93c2.85-4.53-2-5.41-2-5.41M188.06,28.5c1.8-.16,1.2,1.91,0,2.87a7.82,7.82,0,0,0-2.7,5.74c0,2.55,3.45,3.5,4.8,3.5s.15-2.87.15-4.78,2.26-4.62,4.36-6.54.3-4.46-2.4-5.1-6,3.83-6,3.83Zm-4.51,10-1.65-1.75s-.6,8.13-1.5,11,.45,8.29,3.75,8.77,12.63.32,14.73-.32,4.21-3.51,2.4-8.13-2.7-5.9-3.45-5.74-1.05,1.59-.6,3.67,1.8,4.94-.61,5.73-11.72,2.72-12.17-2.23.3-7.81-.9-11m-19.21-20.2c-1.79,1.29-4.9,4.56-4.6,7,.39,3.25,1.59,4.67,4.12,4.24,2.21-.37,3.6-7.35,3.29-10.61-.19-2.06-1.55-1.53-2.81-.61m6.38,10,0,2.14-2.5,1.58a1.72,1.72,0,0,0,2.25,1.06c1.87-.4-.25,3.17-1.5,3s-2.49-.13-2.74.79-4.36.66-4.36.66-3.24,3.57-1.74,5.16,3.86-.79,4.61-1.19,1.86-1.85,3.36-.26,1.24,1.85-.5,3-1.12,2.11-.25,2.77,1.12,1.72-1.74,1.72-1.75-.79-2-1.45-5.35,1.71-6.35,4.62,1.25,4.76,3.37,4.1,5.73-5.29,7.59-4.36.38,2-.62,4.1-.5,6.11,1.22,7.71,3.44-1.83,3.44-4.11-.65-8.81.32-9.61,2.15-3.44,3.22-4.12a4,4,0,0,0,1.93-3.55c0-1.71-.43-2.06-1.93-2.4s-.64-3.2.22-3.43,2.47-1.38,2.36-2.63-.65-2.86-1.94-2.75-.53-2.17-2.46-3-3.33-.8-3.23.34"/><path class="cls-1" d="M252,56.92s-4.83.8-8.15-1a97.88,97.88,0,0,1-8.45-5.44s-1.06-.89-1.11.51,1.52,3.66,2.28,4.52,4,8.34,7.26,8.08S252,56.92,252,56.92M235.54,23a13.84,13.84,0,0,0-3.62-7.69c-2-1.76-3.32-1.76-2.41,2.4s0,19.22-1.36,22.26-4.83,4-9.05,4.48-7.4-1.28-6,1.77,2.26,6.56,5.13,4.8,9.21-6.57,9.05-2.88-5.13,12-12.37,10.73c0,0-1.21,3,3,3.84s13-6.41,12.37-17.62c0,0,9.81-4.16,13.74-6.08s1.05-3.68.15-4-2.72-1.93-4.68-.16-6.49,5.76-7.55,4,.76-6.09,2.11-8.65,1.51-7.2,1.51-7.2"/><path class="cls-1" d="M88.79,27.31l-15.6,10-.16-3S84.38,23.86,85.68,22.59,84,18.34,83,19.72s-2.81,2.53-4,1.84,1.62-3.11,1.08-4.95-8.22-7.48-8.22-7.48l.42,14.44c-.1,3.27-7.46,6.27-10.32,6.05s-4.48-.86-4.35,2.1,7.19,3.72,9,3.81,1.93,3.24.21,4S57.73,44,55.32,45.07s-2.68,5.42-2.68,11.22,3.54,7.17,5.18,7.17,1.9-3.22,2-6.07-2.34-5.33-3-7.36,6-5.61,7.43-5.7,1.38,2.21,2.5,3.49,3.11-.18,3.89-1.1,2.42-.92,2.76-.09-.77,1.19-2.59,1.93S69.3,49.85,70,51.23a2.15,2.15,0,0,1-1.81,3.22c-1.73,0-2.16,2.2-2.16,2.2s0,.05.15.6,4.16,5.34,6.07,5.71,2.77-1.2,4.68-5.71,5.63,1.75,6.93,3.87,5.55,5.51,5.81-.47a195,195,0,0,1,4.18-27.88c2-8.38-5-5.46-5-5.46M73.64,42c-1.34,1.22-3.46,1.3-4.37.55s1.22-2.06,2.6-2.9,3.74-1.26,4.18-.83A14.07,14.07,0,0,1,73.64,42M87.37,47.4c0-.07-.51,10.35-2.58,9.68s-4.35-1.13-6-7.95,4.59-9.68,4.91-9.88.75-1.53-.76-1.87-2-1.6-.13-2.54,7-5.54,6.8-1.26S87.37,47.47,87.37,47.4"/><path class="cls-1" d="M294.87,25.76s3-5.93,5.3-7.75a4.37,4.37,0,0,0,.43-6.38c-1.43-1.52-3.58-.76-5.16.61s-9.88,7.29-10.74,7.29-3-.91-.86-2.58,7.48-2,5.21-6.69S284,7.83,284,7.83s1.29,2.73,1,3.95-3.44,4.86-3.44,4.86l-10.74-6.53s-1.86,0-1.86,1.21.72,2,2.29,3,3.58,2.59,3.58,5.32.29,7.45-.57,7.14-2.44-.76-2.44-2.88-4-2.89-4.58-2.13,0,2,.43,4.86-.86,5,.72,5.62,2.72.61,2.72,2-10.6,10.18-9.74,11.55,1.29,4.56,4,3.64,15-11.39,18.62-13.67,11.17-8,12.6-6.69-5.87,7.6-8,8.06-2.58-.16-5.44,2-6.45,3-5,3.8,5.88-.91,5.59.61,1,3.8-1,4.1-6.59.91-9.88,2.58-9.88,5.17-8.88,6.84,6,4.56,9.16,6.84,6,4.56,7.16,5.32,6.59,2,6.59-3.19-.14-14.59-.14-14.59h8.73a2.44,2.44,0,0,0,1.72-2.89c-.29-2.43-2.43-4.1-3.58-4.1s-1.72.3-1.72,1.52H288v-3s3.16-1.82,3.16-3.19-.58-1.52,2-3.34,7.3-4.87,7.3-7.75-3.15-2.89-5.58-2.89m-18.09-5.09c-.11-1.25,1.18-.57,1.18-.57s1.71.45,1.71,1.7-.53,1.37-2,1.37-.75-1.25-.86-2.5m0,6.82c2.36-.68,2.57-1.59,2.68-.45s.21,1.25,1.18,1,1.39-.68,1.29.8-.11,1.14-2.15,1.71-1.71-.46-3.32,1.25a1.81,1.81,0,0,1-2.9.11s.86-3.75,3.22-4.44M276.13,38c-1,.57-5.36,5.35-6.86,4.1s3.76-5.46,5.15-6.6c0,0,8.36-4.89,9.44-3.75s-6.76,5.68-7.73,6.25m9.44-11.15c-1.07.34-1.71-.34-2-1.36s2.25-1,2.25-1a2.06,2.06,0,0,1,.85,1.6c0,1,0,.45-1.07.79m8.26-2.73c-.32.57-.75.46-1.29,1.25a4,4,0,0,0-.75,2.39c-.1,1.25-.1,1.37-1.61,1.48S289,28.4,289,27.61s.11-.91.11-2.28.32-.22,1.29-.79,1.07-1.14,1.61-2.39-.11-1.37-1.08-1.94-.53-.68-.53-1.82,1.18-1,2.79-2.5,2.78-1.71,4.18-.68-2.15,5.34-3,7.39a6.86,6.86,0,0,1-.53,1.48m-12.6,41.07c-.46,1.47-1.53-.81-7.49-4.88s-2.9-3.26,0-4.72a37.78,37.78,0,0,1,7.64-2.44s.31,10.58-.15,12"/></g></g></svg>