<svg xmlns="http://www.w3.org/2000/svg" viewBox="0 0 301.78 86.91"><defs><style>.cls-1{fill:#004073;fill-rule:evenodd;}</style></defs><title>资源 1</title><g id="图层_2" data-name="图层 2"><g id="图层_1-2" data-name="图层 1"><path class="cls-1" d="M9.79,79V75.52h-.5q-.07.57-.51.57a2.35,2.35,0,0,1-.7-.19,5.74,5.74,0,0,0-1.83-.38c-2.28,0-3.48,1.12-3.61,3.23-.08,1.35.84,2.49,2.78,3.42l1.08.57c1.27.46,1.88,1.11,1.83,2-.08,1.14-.75,1.73-2,1.77q-2.53,0-3.35-3.42H2.51v3.86H3a.51.51,0,0,1,.5-.44,3.19,3.19,0,0,1,.7.13,7.84,7.84,0,0,0,2.09.31c2.49-.08,3.81-1.18,4-3.29a3.22,3.22,0,0,0-1.77-3L6.12,79.51a4.41,4.41,0,0,1-1.39-.88,1.67,1.67,0,0,1-.32-1.08c0-.93.63-1.44,1.77-1.52q2.22.06,3.17,3Zm7.47-2.91q2.72.14,2.84,5.19c0,3.42-.94,5.15-2.84,5.19s-2.91-1.77-2.91-5.19,1.05-5.1,2.91-5.19m0-.57q-5.44.39-5.76,5.76c.21,3.59,2.13,5.46,5.76,5.63,3.58-.17,5.48-2,5.69-5.63q-.32-5.37-5.69-5.76m17.59.26H31.3v.38c1.14,0,1.67.54,1.59,1.64v4.94C33,85.06,32,86.21,30,86.21c-1.61,0-2.39-1-2.34-3.16V77.67c0-.63.1-1,.31-1.2s.55-.31,1.27-.31v-.38H23.77v.38c.6,0,.95.16,1.08.38a1.69,1.69,0,0,1,.25,1.13v5.38a3.34,3.34,0,0,0,1.14,3,5.28,5.28,0,0,0,3.29.88,4.66,4.66,0,0,0,3.16-1.07,4.75,4.75,0,0,0,.89-3.1V77.55c-.08-.89.34-1.35,1.27-1.39Zm8.6,10.56c-.76,0-1.18-.14-1.26-.31s-.32-.57-.32-1.2V76.28A2.69,2.69,0,0,1,45,79h.51l-.06-3.22H35.73L35.67,79h.44a2.77,2.77,0,0,1,3.17-2.72v8.55c0,.63-.11,1-.32,1.2s-.5.27-1.26.31v.38h5.75Zm14.75,0A2.32,2.32,0,0,1,57.12,86a1.09,1.09,0,0,1-.32-.89V77.36c0-.81.43-1.2,1.4-1.2v-.38H52.69v.38c1,0,1.5.39,1.46,1.2v3.35H50.29V77.36c0-.81.44-1.2,1.45-1.2v-.38h-5.5v.38c1,0,1.43.39,1.39,1.2v7.78a1.09,1.09,0,0,1-.32.89,2.27,2.27,0,0,1-1.07.31v.38h5.5v-.38A3,3,0,0,1,50.6,86a1.09,1.09,0,0,1-.31-.89V81.47h3.86v3.67a1.09,1.09,0,0,1-.32.89,3,3,0,0,1-1.14.31v.38H58.2Zm15-2.08a4.82,4.82,0,0,1-3.8,2,3,3,0,0,1-2.46-1.45,7,7,0,0,1-.7-3.55q0-5.19,3-5.19c1.56.09,2.82,1.18,3.79,3.29h.38V75.59h-.44c-.17.5-.4.76-.7.76a4,4,0,0,1-.76-.26,6.91,6.91,0,0,0-2.4-.57q-5.31.39-5.7,5.83c.26,3.58,2.18,5.44,5.76,5.56a5.6,5.6,0,0,0,4.56-2.27Zm13.29,2.08A2.37,2.37,0,0,1,85.4,86a1.09,1.09,0,0,1-.31-.89V77.36c0-.81.42-1.2,1.39-1.2v-.38H81v.38c1,0,1.49.39,1.45,1.2v3.35H78.57V77.36c0-.81.44-1.2,1.46-1.2v-.38H74.52v.38c1,0,1.43.39,1.39,1.2v7.78a1.09,1.09,0,0,1-.31.89,2.37,2.37,0,0,1-1.08.31v.38H80v-.38A3,3,0,0,1,78.89,86a1.09,1.09,0,0,1-.32-.89V81.47h3.86v3.67a1.09,1.09,0,0,1-.31.89,3,3,0,0,1-1.14.31v.38h5.5Zm6.33,0c-1.1,0-1.63-.4-1.58-1.2V77.36c0-.81.44-1.2,1.45-1.2h.13v-.38h-5.7v.38c1.06,0,1.56.39,1.52,1.2v7.78a1.09,1.09,0,0,1-.31.89,3.14,3.14,0,0,1-1.21.31v.38h5.7Zm.5.38H97v-.38a1.33,1.33,0,0,1-1.51-1.64V78.24l7.21,8.67h.44V77.48c-.08-.8.34-1.24,1.27-1.32v-.38h-3.48v.38c1.09,0,1.6.59,1.52,1.64v4.87l-5.64-6.89H93.38v.38c.21,0,.67.36,1.39,1.2V85a1.16,1.16,0,0,1-.32.95,2.13,2.13,0,0,1-1.14.38Zm14.43-3.79,1.52-4,1.65,4Zm8.1,3.41a1,1,0,0,1-.82-.44,8.55,8.55,0,0,1-1-1.83l-3.61-8.55H110l-3.61,8.92c-.38,1.27-.9,1.9-1.58,1.9v.38h3.29v-.38h-.06c-.85-.13-1.27-.35-1.27-.69a6.41,6.41,0,0,1,.76-2.09h3.61a8.69,8.69,0,0,1,.76,2.15q.12.57-1.14.63h-.19v.38h5.25Zm4.81.38h3.67v-.38a1.34,1.34,0,0,1-1.52-1.64V78.24L130,86.91h.44V77.48c-.09-.8.34-1.24,1.26-1.32v-.38h-3.48v.38c1.1,0,1.61.59,1.52,1.64v4.87l-5.63-6.89h-3.42v.38c.21,0,.68.36,1.4,1.2V85a1.16,1.16,0,0,1-.32.95,2.13,2.13,0,0,1-1.14.38Zm17.72-10.63q2.72.14,2.84,5.19c0,3.42-.94,5.15-2.84,5.19s-2.91-1.77-2.91-5.19,1-5.1,2.91-5.19m0-.57q-5.44.39-5.76,5.76c.21,3.59,2.13,5.46,5.76,5.63,3.58-.17,5.48-2,5.69-5.63q-.31-5.37-5.69-5.76M149.13,77c-.09-.51.25-.72,1-.63,1.31,0,2,.78,2,2.34a2.43,2.43,0,0,1-.63,2,3.73,3.73,0,0,1-2.34.5Zm7.08,9.36a.9.9,0,0,1-.63-.31l-3.29-4.62c1.73-.51,2.57-1.44,2.53-2.78q-.06-2.79-4.55-2.85h-5.19v.38c.59,0,.95.14,1.07.31a1.73,1.73,0,0,1,.32,1.2v7.16a2,2,0,0,1-.26,1.2c-.12.17-.5.27-1.13.31v.38h5.44v-.38c-.68-.08-1.06-.21-1.14-.38a1.69,1.69,0,0,1-.25-1.13V81.66h.44l3.35,5.06h3.29Zm15,0c-.68-.08-1.08-.21-1.2-.38a1.68,1.68,0,0,1-.26-1.13V77.67a1.73,1.73,0,0,1,.32-1.2c.13-.17.51-.27,1.14-.31v-.38H167.1l-3.23,7.65-3.23-7.65h-4.11v.38c1.05,0,1.54.44,1.46,1.2V85a1.47,1.47,0,0,1-.26,1,2,2,0,0,1-1.2.31v.38h3.74v-.38A1.78,1.78,0,0,1,159,85.9a1.71,1.71,0,0,1-.32-1.2V77.17l4,9.55h.44l4.05-9.81h.07v8.17a1.18,1.18,0,0,1-.32,1,2.53,2.53,0,0,1-1.14.31v.38h5.38Zm3.35-3.41,1.52-4,1.65,4Zm8.1,3.41a1,1,0,0,1-.82-.44,9.08,9.08,0,0,1-1-1.83l-3.61-8.55h-.44l-3.61,8.92c-.38,1.27-.9,1.9-1.58,1.9v.38h3.29v-.38h-.06c-.84-.13-1.27-.35-1.27-.69a6.41,6.41,0,0,1,.76-2.09H178a7.91,7.91,0,0,1,.76,2.15c.08.38-.29.59-1.14.63h-.19v.38h5.25Zm10.82-3.29H193q-1.14,3.3-4.11,3.16c-1.06.09-1.54-.21-1.46-.88V77.67c0-.63.11-1,.32-1.2s.61-.31,1.32-.31v-.38h-5.63v.38c1,0,1.44.39,1.4,1.2v7.78a1.09,1.09,0,0,1-.32.89,2.28,2.28,0,0,1-1.08.31v.38h9.37Zm15.82-7.27h-3.54v.38c1.14,0,1.66.54,1.58,1.64v4.94c.08,2.32-.87,3.47-2.85,3.47-1.6,0-2.38-1-2.34-3.16V77.67c0-.63.11-1,.32-1.2s.55-.31,1.26-.31v-.38h-5.5v.38c.59,0,1,.16,1.07.38a1.68,1.68,0,0,1,.26,1.13v5.38a3.29,3.29,0,0,0,1.14,3,5.24,5.24,0,0,0,3.29.88,4.68,4.68,0,0,0,3.16-1.07,4.81,4.81,0,0,0,.89-3.1V77.55c-.09-.89.33-1.35,1.26-1.39Zm.57,10.94h3.67v-.38A1.34,1.34,0,0,1,212,84.7V78.24l7.22,8.67h.44V77.48c-.09-.8.34-1.24,1.26-1.32v-.38h-3.48v.38c1.1,0,1.61.59,1.52,1.64v4.87l-5.63-6.89h-3.42v.38c.21,0,.68.36,1.4,1.2V85A1.16,1.16,0,0,1,211,86a2.13,2.13,0,0,1-1.14.38Zm17.41-.38q-1.65,0-1.59-1.2V77.36c0-.81.44-1.2,1.46-1.2h.13v-.38h-5.7v.38c1,0,1.56.39,1.52,1.2v7.78a1.09,1.09,0,0,1-.32.89,3.13,3.13,0,0,1-1.2.31v.38h5.7Zm11.57-10.56h-3.41v.38a2.83,2.83,0,0,1,1.07.19.53.53,0,0,1,.32.56,2.86,2.86,0,0,1-.26.89,1.14,1.14,0,0,0-.06.25l-2.09,5.32-2.09-5.13a4.07,4.07,0,0,1-.5-1.39c0-.3.08-.46.25-.5a3.08,3.08,0,0,1,1.14-.19v-.38h-5.44v.38a1.48,1.48,0,0,1,1.39,1.13l4.11,9.62h.45l3.67-9.43c.29-.88.78-1.32,1.45-1.32Zm.57.38c1,0,1.5.39,1.46,1.2v7.78a1.09,1.09,0,0,1-.32.89,2.48,2.48,0,0,1-1.14.31v.38h9.49l.64-3.35h-.45a4.15,4.15,0,0,1-4.24,2.84c-1,.05-1.47-.25-1.39-.88V81.41a2.88,2.88,0,0,1,1.9.5,3.45,3.45,0,0,1,.76,2h.38V78.43h-.38a3.07,3.07,0,0,1-.76,1.9,2.82,2.82,0,0,1-1.9.51V77.1c-.08-.58.32-.84,1.2-.75a4.67,4.67,0,0,1,2.66.56,2.8,2.8,0,0,1,1,2.09h.45V75.78h-9.37Zm15,.82c-.09-.51.25-.72,1-.63,1.31,0,2,.78,2,2.34a2.43,2.43,0,0,1-.63,2,3.73,3.73,0,0,1-2.34.5Zm7.08,9.36a.9.9,0,0,1-.63-.31l-3.29-4.62c1.73-.51,2.57-1.44,2.53-2.78q-.06-2.79-4.55-2.85h-5.19v.38c.59,0,.95.14,1.08.31a1.73,1.73,0,0,1,.31,1.2v7.16a2.09,2.09,0,0,1-.25,1.2c-.13.17-.51.27-1.14.31v.38h5.44v-.38c-.68-.08-1.06-.21-1.14-.38a1.69,1.69,0,0,1-.25-1.13V81.66h.44l3.35,5.06h3.29ZM269.41,79V75.52h-.5q-.06.57-.51.57a2.32,2.32,0,0,1-.69-.19,5.79,5.79,0,0,0-1.84-.38c-2.28,0-3.48,1.12-3.6,3.23q-.13,2,2.78,3.42l1.08.57c1.26.46,1.87,1.11,1.83,2-.08,1.14-.76,1.73-2,1.77q-2.52,0-3.35-3.42h-.44v3.86h.44c.09-.29.25-.44.51-.44a3.14,3.14,0,0,1,.69.13,7.9,7.9,0,0,0,2.09.31q3.74-.12,4-3.29a3.22,3.22,0,0,0-1.77-3l-2.34-1.14a4.49,4.49,0,0,1-1.4-.88,1.67,1.67,0,0,1-.31-1.08c0-.93.63-1.44,1.77-1.52,1.47,0,2.53,1,3.16,3Zm7.16,7.34q-1.65,0-1.59-1.2V77.36c0-.81.45-1.2,1.46-1.2h.13v-.38h-5.7v.38c1.05,0,1.56.39,1.52,1.2v7.78a1.09,1.09,0,0,1-.32.89,3.13,3.13,0,0,1-1.2.31v.38h5.7Zm8.54,0c-.76,0-1.19-.14-1.27-.31s-.32-.57-.32-1.2V76.28A2.7,2.7,0,0,1,286.63,79h.5l-.06-3.22h-9.68L277.32,79h.45a2.76,2.76,0,0,1,3.16-2.72v8.55c0,.63-.11,1-.32,1.2s-.5.27-1.26.31v.38h5.76ZM298.9,75.78h-3.54v.38c.92,0,1.37.29,1.32.75a3.19,3.19,0,0,1-.63,1.46l-1.77,3-2-3.8s0-.1-.13-.19a1.91,1.91,0,0,1-.25-.69c-.13-.43.31-.62,1.33-.57v-.38h-5.44v.38a1.49,1.49,0,0,1,1.26.88l3,5.38v2.41c0,.59-.1,1-.31,1.13s-.53.34-1.2.38v.38h5.63v-.38c-.68,0-1.08-.14-1.2-.31a1.84,1.84,0,0,1-.26-1.2v-3l3.1-5.06a1.4,1.4,0,0,1,1-.63h.06Z"/><path class="cls-1" d="M15.8,17.33c2.61,0,1.87,6.73,1.87,6.73l-6,3.16S8.71,30,13.19,30s9.7-4.35,9.7-4.35l-.75,8.71S5,44.25,2.74,44.25-1.74,47,2,49s2.23,1.58,6.34-1.59,13.43-9.1,13.43-9.1L22.14,45l-6.71,4.75s-4.11,2.12,0,4.75a5.6,5.6,0,0,0,7.09-.4s-.38,4.75-.75,7.13-2.61,3.56,1.12,7.52,5.73,2.25,5.73-1.32S27.74,49,27.74,49s4.48-1.19,5.22-3.17,0-2.38-3.73-2.38-3.73-1.18-3.73-1.18l1.14-7.1s10.17-3,14.87-5.27C45.42,28,45.56,26.69,44.6,26c-1.23-.85-4.53-.67-6.67,0a66.91,66.91,0,0,0-10.87,5.15l.68-5.57s.75-4.75,3.73-4.75,8.58-3.17,8.21-5.15-1.43-1.53-4-1.14c-1,.16-2.09-3-2.58-2.72-1.92,1.2-.39,6.56-4.52,5.85-1-.17.07-1.32-.45-1.48a2.6,2.6,0,0,0-3.29,1.24l-2.43,4.3s-2.09-4.86-.23-6.84S38.93,3.87,38.93,3.87,40.8-1.28,36.69.3,25.5,9,25.5,9,24,12.18,22.89,9.8s.74-4.75-1.12-5.14-5.22-2.38-5.22.79c0,1.24-.89,1.39-1.47,2-.78.81-.67,1.18-.62,1.42s.12.36.84.67c1.25.53,1.25,2.65,1.25,2.65-1.12.44-2.42.57-3,1.44a2.36,2.36,0,0,0,2.22,3.71"/><path class="cls-1" d="M117.39,10.93s2.21,1.77,2.21,3.88-3.21,8.28-6.07,11.47c-2.23,2.49-5.5,6.18-6.93,8-.65.84-1,1.39.21,1.88,1,.39,2.42.51,3-.4.88-1.45,13-15,14.7-17.18s1.63-4.38-.39-6c-4.34-3.5-6.71-1.66-6.71-1.66M110.5,47.65c-.46,7,.58,8,1.7,8.14s4.28-.19,4.06-7-5.72-7.29-5.72-7.29Zm10.32-8c-.26.21-3.21,1.81-3.14,3.61s.13,5.56,2.09,5.77,3.93-1.32,3.41-4.65-2.1-4.94-2.36-4.73m.81-12.24s-4.53,6.37-6.26,7.72.46,2.32,2.09,2.8,4.17,1.16,5-1.54.72-4.35,1.44-4.73,1.27-2.9.37-3.67a4,4,0,0,0-2.63-.58m3.86,14.11s-.72,3.31,1.6,2.84,5.37-3.3,5.44-1.84-.06,17.22-.06,18.48A3.29,3.29,0,0,0,135,63.7c.87,0,2.85-.92,2.85-4.69V42.83s2.37,1.76,6.24-4.94c2.66-4.61.8-5.93-.62-6.31-1.21-.32-1.16-.15-2.11.51-1.19.85-3.25,2.19-4.22,2.19-1.43,0-.08-1.17-.79-1.17s-2.61-.5-2.61.42-.08,5-.08,5Zm13.8-6.46c-.47.58-1.9,2.4-1.23,2.85a1.56,1.56,0,0,0,2.47-.45c.75-1.27,2.55-2.43,1.42-2.85a3.79,3.79,0,0,0-2.66.45M128.89,30a3.8,3.8,0,0,0,3.65,2.07c3.24-.35,8.21-4.59,9.86-6.08s3.48-3.36,2.07-4.77-2.9-1.15-5.55,1.06a63.9,63.9,0,0,1-8.9,5.4c-1.55.79-2.27.43-1.13,2.32"/><path class="cls-1" d="M192.69,11.2c-1.09-1.15-3.79-.58-5.52,1.73s-1.62,5.06-.75,5.52,5.13.4,7.55-2.63c1.94-2.42-1.28-4.62-1.28-4.62m-16.35,6.92c-1.45-.84-3.31-1.06-4.09.08s-2.11,2.73.2,4.4,4.51,2.82,5.87.93c2.85-4.53-2-5.41-2-5.41M188.06,28.5c1.8-.16,1.2,1.91,0,2.87a7.82,7.82,0,0,0-2.7,5.74c0,2.55,3.45,3.5,4.8,3.5s.15-2.87.15-4.78,2.26-4.62,4.36-6.54.3-4.46-2.4-5.1-6,3.83-6,3.83Zm-4.51,10-1.65-1.75s-.6,8.13-1.5,11,.45,8.29,3.75,8.77,12.63.32,14.73-.32,4.21-3.51,2.4-8.13-2.7-5.9-3.45-5.74-1.05,1.59-.6,3.67,1.8,4.94-.61,5.73-11.72,2.72-12.17-2.23.3-7.81-.9-11m-19.21-20.2c-1.79,1.29-4.9,4.56-4.6,7,.39,3.25,1.59,4.67,4.12,4.24,2.21-.37,3.6-7.35,3.29-10.61-.19-2.06-1.55-1.53-2.81-.61m6.38,10,0,2.14-2.5,1.58a1.72,1.72,0,0,0,2.25,1.06c1.87-.4-.25,3.17-1.5,3s-2.49-.13-2.74.79-4.36.66-4.36.66-3.24,3.57-1.74,5.16,3.86-.79,4.61-1.19,1.86-1.85,3.36-.26,1.24,1.85-.5,3-1.12,2.11-.25,2.77,1.12,1.72-1.74,1.72-1.75-.79-2-1.45-5.35,1.71-6.35,4.62,1.25,4.76,3.37,4.1,5.73-5.29,7.59-4.36.38,2-.62,4.1-.5,6.11,1.22,7.71,3.44-1.83,3.44-4.11-.65-8.81.32-9.61,2.15-3.44,3.22-4.12a4,4,0,0,0,1.93-3.55c0-1.71-.43-2.06-1.93-2.4s-.64-3.2.22-3.43,2.47-1.38,2.36-2.63-.65-2.86-1.94-2.75-.53-2.17-2.46-3-3.33-.8-3.23.34"/><path class="cls-1" d="M252,56.92s-4.83.8-8.15-1a97.88,97.88,0,0,1-8.45-5.44s-1.06-.89-1.11.51,1.52,3.66,2.28,4.52,4,8.34,7.26,8.08S252,56.92,252,56.92M235.54,23a13.84,13.84,0,0,0-3.62-7.69c-2-1.76-3.32-1.76-2.41,2.4s0,19.22-1.36,22.26-4.83,4-9.05,4.48-7.4-1.28-6,1.77,2.26,6.56,5.13,4.8,9.21-6.57,9.05-2.88-5.13,12-12.37,10.73c0,0-1.21,3,3,3.84s13-6.41,12.37-17.62c0,0,9.81-4.16,13.74-6.08s1.05-3.68.15-4-2.72-1.93-4.68-.16-6.49,5.76-7.55,4,.76-6.09,2.11-8.65,1.51-7.2,1.51-7.2"/><path class="cls-1" d="M88.79,27.31l-15.6,10-.16-3S84.38,23.86,85.68,22.59,84,18.34,83,19.72s-2.81,2.53-4,1.84,1.62-3.11,1.08-4.95-8.22-7.48-8.22-7.48l.42,14.44c-.1,3.27-7.46,6.27-10.32,6.05s-4.48-.86-4.35,2.1,7.19,3.72,9,3.81,1.93,3.24.21,4S57.73,44,55.32,45.07s-2.68,5.42-2.68,11.22,3.54,7.17,5.18,7.17,1.9-3.22,2-6.07-2.34-5.33-3-7.36,6-5.61,7.43-5.7,1.38,2.21,2.5,3.49,3.11-.18,3.89-1.1,2.42-.92,2.76-.09-.77,1.19-2.59,1.93S69.3,49.85,70,51.23a2.15,2.15,0,0,1-1.81,3.22c-1.73,0-2.16,2.2-2.16,2.2s0,.05.15.6,4.16,5.34,6.07,5.71,2.77-1.2,4.68-5.71,5.63,1.75,6.93,3.87,5.55,5.51,5.81-.47a195,195,0,0,1,4.18-27.88c2-8.38-5-5.46-5-5.46M73.64,42c-1.34,1.22-3.46,1.3-4.37.55s1.22-2.06,2.6-2.9,3.74-1.26,4.18-.83A14.07,14.07,0,0,1,73.64,42M87.37,47.4c0-.07-.51,10.35-2.58,9.68s-4.35-1.13-6-7.95,4.59-9.68,4.91-9.88.75-1.53-.76-1.87-2-1.6-.13-2.54,7-5.54,6.8-1.26S87.37,47.47,87.37,47.4"/><path class="cls-1" d="M294.87,25.76s3-5.93,5.3-7.75a4.37,4.37,0,0,0,.43-6.38c-1.43-1.52-3.58-.76-5.16.61s-9.88,7.29-10.74,7.29-3-.91-.86-2.58,7.48-2,5.21-6.69S284,7.83,284,7.83s1.29,2.73,1,3.95-3.44,4.86-3.44,4.86l-10.74-6.53s-1.86,0-1.86,1.21.72,2,2.29,3,3.58,2.59,3.58,5.32.29,7.45-.57,7.14-2.44-.76-2.44-2.88-4-2.89-4.58-2.13,0,2,.43,4.86-.86,5,.72,5.62,2.72.61,2.72,2-10.6,10.18-9.74,11.55,1.29,4.56,4,3.64,15-11.39,18.62-13.67,11.17-8,12.6-6.69-5.87,7.6-8,8.06-2.58-.16-5.44,2-6.45,3-5,3.8,5.88-.91,5.59.61,1,3.8-1,4.1-6.59.91-9.88,2.58-9.88,5.17-8.88,6.84,6,4.56,9.16,6.84,6,4.56,7.16,5.32,6.59,2,6.59-3.19-.14-14.59-.14-14.59h8.73a2.44,2.44,0,0,0,1.72-2.89c-.29-2.43-2.43-4.1-3.58-4.1s-1.72.3-1.72,1.52H288v-3s3.16-1.82,3.16-3.19-.58-1.52,2-3.34,7.3-4.87,7.3-7.75-3.15-2.89-5.58-2.89m-18.09-5.09c-.11-1.25,1.18-.57,1.18-.57s1.71.45,1.71,1.7-.53,1.37-2,1.37-.75-1.25-.86-2.5m0,6.82c2.36-.68,2.57-1.59,2.68-.45s.21,1.25,1.18,1,1.39-.68,1.29.8-.11,1.14-2.15,1.71-1.71-.46-3.32,1.25a1.81,1.81,0,0,1-2.9.11s.86-3.75,3.22-4.44M276.13,38c-1,.57-5.36,5.35-6.86,4.1s3.76-5.46,5.15-6.6c0,0,8.36-4.89,9.44-3.75s-6.76,5.68-7.73,6.25m9.44-11.15c-1.07.34-1.71-.34-2-1.36s2.25-1,2.25-1a2.06,2.06,0,0,1,.85,1.6c0,1,0,.45-1.07.79m8.26-2.73c-.32.57-.75.46-1.29,1.25a4,4,0,0,0-.75,2.39c-.1,1.25-.1,1.37-1.61,1.48S289,28.4,289,27.61s.11-.91.11-2.28.32-.22,1.29-.79,1.07-1.14,1.61-2.39-.11-1.37-1.08-1.94-.53-.68-.53-1.82,1.18-1,2.79-2.5,2.78-1.71,4.18-.68-2.15,5.34-3,7.39a6.86,6.86,0,0,1-.53,1.48m-12.6,41.07c-.46,1.47-1.53-.81-7.49-4.88s-2.9-3.26,0-4.72a37.78,37.78,0,0,1,7.64-2.44s.31,10.58-.15,12"/></g></g></svg>